<svg width="412" height="917" viewBox="0 0 412 917" fill="none" xmlns="http://www.w3.org/2000/svg">
<g clip-path="url(#clip0_671_785)">
<rect width="412" height="917" fill="white"/>
<rect width="412" height="917" fill="#FF920C"/>
<rect width="412" height="72" fill="#FF920C"/>
<path opacity="0.3" fill-rule="evenodd" clip-rule="evenodd" d="M215.825 620.019L168.79 714.251C167.651 716.53 167 721.575 167 721.575V729.712C167 749.08 174.649 767.796 188.483 781.467C191.901 784.885 195.644 787.977 199.55 790.581V1128.45H183.275C174.324 1128.45 167 1135.77 167 1144.72C167 1153.68 174.324 1161 183.275 1161H801.725C810.676 1161 818 1153.68 818 1144.72C818 1135.77 810.676 1128.45 801.725 1128.45H785.45V790.581C789.356 787.977 793.099 784.885 796.517 781.467C810.188 767.796 818 749.08 818 729.712V721.575C818 719.134 817.512 716.53 816.21 714.251L769.175 620.019V526.275C769.175 517.324 761.851 510 752.9 510H232.1C223.149 510 215.825 517.324 215.825 526.275V620.019ZM295.084 778.212C294.108 779.351 293.131 780.328 292.155 781.467C278.484 795.138 259.768 802.95 240.4 802.95C237.634 802.95 235.03 802.787 232.263 802.462V1128.45H573.875V851.775C573.875 842.824 581.199 835.5 590.15 835.5H720.35C729.301 835.5 736.625 842.824 736.625 851.775V1128.45H752.9V802.462C750.296 802.787 747.529 802.95 744.762 802.95C725.395 802.95 706.679 795.301 693.008 781.467C692.031 780.49 690.892 779.351 690.078 778.375C688.614 780.328 686.823 782.118 685.196 783.908C672.99 796.114 656.389 802.95 639.138 802.95C621.886 802.95 605.286 796.114 593.079 783.908C592.103 782.932 591.126 781.955 590.313 780.979C589.336 781.955 588.522 782.932 587.546 783.908C575.34 796.114 558.739 802.95 541.488 802.95C524.236 802.95 507.636 796.114 495.429 783.908C494.453 782.932 493.476 781.955 492.663 780.979C491.849 781.955 490.872 782.932 489.896 783.908C477.69 796.114 461.089 802.95 443.838 802.95C426.586 802.95 409.986 796.114 397.779 783.908C396.803 782.932 395.826 781.955 395.013 780.979C394.036 781.955 393.222 782.932 392.246 783.908C380.04 796.114 363.439 802.95 346.188 802.95C328.936 802.95 312.336 796.114 300.13 783.908C298.339 782.118 296.712 780.328 295.084 778.375V778.212ZM704.075 1128.29V965.537H606.425V1128.29H704.075ZM557.6 851.612C557.6 842.661 550.276 835.337 541.325 835.337H264.65C255.699 835.337 248.375 842.661 248.375 851.612V1063.19C248.375 1072.14 255.699 1079.46 264.65 1079.46H541.325C550.276 1079.46 557.6 1072.14 557.6 1063.19V851.612ZM443.675 1046.91H525.05V867.887H280.925V1046.91H297.2V916.712C297.2 907.761 304.524 900.437 313.475 900.437C322.426 900.437 329.75 907.761 329.75 916.712V998.087H362.3C371.251 998.087 378.575 1005.41 378.575 1014.36V1046.91H411.125V981.812H362.3C353.349 981.812 346.025 974.488 346.025 965.537V916.712C346.025 907.761 353.349 900.437 362.3 900.437H492.5C501.451 900.437 508.775 907.761 508.775 916.712V965.537C508.775 974.488 501.451 981.812 492.5 981.812H443.675V1046.91ZM329.75 1030.64V1046.91H346.025V1030.64H329.75ZM476.225 932.987V949.262H378.575V932.987H476.225ZM606.425 932.987V867.887H704.075V932.987H606.425ZM280.111 737.85C278.484 745.662 274.741 752.823 269.044 758.519C261.395 766.169 251.142 770.4 240.237 770.4C229.496 770.4 219.08 766.169 211.431 758.519C205.734 752.823 201.991 745.662 200.364 737.85H280.111ZM784.636 737.85C783.009 745.662 779.265 752.823 773.569 758.519C765.92 766.169 755.667 770.4 744.762 770.4C734.021 770.4 723.605 766.169 715.956 758.519C710.259 752.823 706.516 745.662 704.889 737.85H784.636ZM476.225 737.85C476.225 746.476 472.807 754.776 466.623 760.798C460.601 766.982 452.301 770.4 443.675 770.4C435.049 770.4 426.749 766.982 420.727 760.798C414.543 754.776 411.125 746.476 411.125 737.85H476.225ZM671.525 737.85C671.525 746.476 668.107 754.776 661.923 760.798C655.901 766.982 647.601 770.4 638.975 770.4C630.349 770.4 622.049 766.982 616.027 760.798C609.843 754.776 606.425 746.476 606.425 737.85H671.525ZM573.875 737.85C573.875 746.476 570.457 754.776 564.273 760.798C558.251 766.982 549.951 770.4 541.325 770.4C532.699 770.4 524.399 766.982 518.377 760.798C512.193 754.776 508.775 746.476 508.775 737.85H573.875ZM378.575 737.85C378.575 746.476 375.157 754.776 368.973 760.798C362.951 766.982 354.651 770.4 346.025 770.4C337.399 770.4 329.099 766.982 323.077 760.798C316.893 754.776 313.475 746.476 313.475 737.85H378.575ZM242.19 640.2H742.81L775.36 705.3H209.64L242.19 640.2ZM736.625 542.55V607.65H248.375V542.55H736.625ZM557.6 591.375H687.8C696.751 591.375 704.075 584.051 704.075 575.1C704.075 566.149 696.751 558.825 687.8 558.825H557.6C548.649 558.825 541.325 566.149 541.325 575.1C541.325 584.051 548.649 591.375 557.6 591.375ZM297.2 591.375H427.4C436.351 591.375 443.675 584.051 443.675 575.1C443.675 566.149 436.351 558.825 427.4 558.825H297.2C288.249 558.825 280.925 566.149 280.925 575.1C280.925 584.051 288.249 591.375 297.2 591.375Z" fill="white"/>
</g>
<defs>
<clipPath id="clip0_671_785">
<rect width="412" height="917" fill="white"/>
</clipPath>
</defs>
</svg>
