<svg width="37" height="37" viewBox="0 0 37 37" fill="none" xmlns="http://www.w3.org/2000/svg">
<path d="M30.9337 5.28557C27.5296 1.87911 23.0031 0.00207836 18.1805 0C8.24269 0 0.155343 8.08477 0.151364 18.0221C0.150206 21.1986 0.980185 24.2993 2.55775 27.0326L0 36.3718L9.55743 33.8657C12.1907 35.3018 15.1556 36.0585 18.1727 36.0597H18.1804H18.1805C28.1166 36.0597 36.2052 27.9736 36.2094 18.0367C36.2111 13.2206 34.3373 8.69227 30.9337 5.28557ZM18.1805 33.0157H18.1746C15.4853 33.0143 12.848 32.2923 10.5477 30.9273L10.0002 30.6028L4.32866 32.0898L5.8429 26.5621L5.48622 25.9954C3.98609 23.6101 3.19414 20.8537 3.19527 18.0233C3.19857 9.76367 9.92046 3.04412 18.1861 3.04412C22.1888 3.04578 25.9509 4.60598 28.7803 7.43733C31.6095 10.2686 33.1664 14.0325 33.1652 18.0354C33.1617 26.2953 26.4396 33.0157 18.1805 33.0157Z" fill="#E0E0E0"/>
<path d="M0.828125 35.3356L3.26904 26.423C1.76315 23.8146 0.971235 20.8552 0.972185 17.8244C0.976134 8.34121 8.69413 0.625977 18.1771 0.625977C22.7797 0.628055 27.0995 2.41925 30.3474 5.67019C33.596 8.9211 35.3839 13.2423 35.382 17.8379C35.3781 27.3213 27.6596 35.0372 18.1778 35.0372C18.1771 35.0372 18.1783 35.0372 18.1778 35.0372H18.1701C15.2908 35.0363 12.4616 34.3135 9.9488 32.944L0.828125 35.3356Z" fill="url(#paint0_linear_795_1070)"/>
<path fill-rule="evenodd" clip-rule="evenodd" d="M13.7266 10.3709C13.3931 9.62934 13.0419 9.6145 12.7245 9.60152C12.465 9.59039 12.1678 9.59107 11.8712 9.59107C11.5743 9.59107 11.0918 9.70265 10.6838 10.1483C10.2755 10.5939 9.125 11.6711 9.125 13.8619C9.125 16.053 10.7209 18.1701 10.9433 18.4675C11.166 18.7644 14.024 23.4041 18.5502 25.189C22.3119 26.6724 23.0774 26.3773 23.8939 26.3031C24.7104 26.2289 26.5285 25.2261 26.8996 24.1862C27.2708 23.1466 27.2708 22.2554 27.1594 22.0691C27.0481 21.8835 26.7512 21.7722 26.3058 21.5495C25.8604 21.3268 23.6712 20.2494 23.263 20.1009C22.8547 19.9525 22.5578 19.8782 22.2609 20.3241C21.964 20.7694 21.1111 21.7722 20.8513 22.0691C20.5915 22.3667 20.3317 22.4038 19.8863 22.1811C19.4409 21.9578 18.0067 21.488 16.3053 19.971C14.9815 18.7908 14.0878 17.3331 13.828 16.8873C13.5682 16.442 13.8001 16.2007 14.0235 15.9787C14.2235 15.7792 14.4689 15.4589 14.6916 15.1989C14.9138 14.9388 14.988 14.7533 15.1365 14.4564C15.2849 14.159 15.2107 13.899 15.0993 13.6763C14.988 13.4536 14.1226 11.2514 13.7266 10.3709Z" fill="white"/>
<path d="M30.7876 5.22833C27.4225 1.86097 22.948 0.00552602 18.1808 0.00341797C8.35705 0.00341797 0.362546 7.99537 0.358597 17.8186C0.357439 20.9587 1.17789 24.0238 2.73734 26.7257L0.208984 35.9577L9.65671 33.4803C12.2598 34.8999 15.1906 35.648 18.1731 35.6492H18.1807H18.1808C28.0029 35.6492 35.9985 27.6558 36.0027 17.833C36.0044 13.0723 34.1522 8.59593 30.7876 5.22833ZM18.1808 32.6402H18.175C15.5165 32.6388 12.9095 31.9251 10.6356 30.5758L10.0944 30.2549L4.48794 31.7249L5.98478 26.2606L5.6322 25.7004C4.14929 23.3426 3.36643 20.6177 3.36759 17.8198C3.37082 9.65506 10.0156 3.01265 18.1864 3.01265C22.1431 3.01428 25.8619 4.55657 28.6589 7.35541C31.4556 10.1543 32.9947 13.8749 32.9935 17.8319C32.99 25.9969 26.3451 32.6402 18.1808 32.6402Z" fill="white"/>
<defs>
<linearGradient id="paint0_linear_795_1070" x1="18.1051" y1="35.3356" x2="18.1051" y2="0.626034" gradientUnits="userSpaceOnUse">
<stop stop-color="#20B038"/>
<stop offset="1" stop-color="#60D66A"/>
</linearGradient>
</defs>
</svg>
