<?xml version="1.0" encoding="UTF-8"?>
<svg id="Layer_1" xmlns="http://www.w3.org/2000/svg" xmlns:xlink="http://www.w3.org/1999/xlink" version="1.1" viewBox="0 0 25 24">
  <!-- Generator: Adobe Illustrator 29.6.0, SVG Export Plug-In . SVG Version: 2.1.1 Build 207)  -->
  <defs>
    <style>
      .st0 {
        fill: url(#linear-gradient2);
      }

      .st1 {
        fill: url(#linear-gradient1);
      }

      .st2 {
        fill: url(#linear-gradient3);
      }

      .st3 {
        fill: url(#linear-gradient4);
      }

      .st4 {
        fill: #e0e2e5;
      }

      .st5 {
        fill: #574d20;
      }

      .st6 {
        fill: #af6a28;
      }

      .st7 {
        fill: url(#linear-gradient);
      }

      .st8 {
        fill: #161914;
      }

      .st9 {
        fill: #fae389;
      }

      .st10 {
        fill: #8e6a29;
      }

      .st11 {
        fill: #9c822f;
      }

      .st12 {
        fill: #61401a;
      }

      .st13 {
        fill: #d7a539;
      }

      .st14 {
        fill: #77c045;
      }

      .st15 {
        fill: #eb8323;
      }

      .st16 {
        fill: #f9d469;
      }
    </style>
    <linearGradient id="linear-gradient" x1="18133.21" y1="-10465.37" x2="18119.1" y2="-10449.54" gradientTransform="translate(-897.32 -497.76) rotate(-.91) scale(.05 -.05)" gradientUnits="userSpaceOnUse">
      <stop offset="0" stop-color="#99702b"/>
      <stop offset="1" stop-color="#c09835"/>
    </linearGradient>
    <linearGradient id="linear-gradient1" x1="18125.5" y1="-10441.32" x2="18124.54" y2="-10451.22" gradientTransform="translate(-897.32 -497.76) rotate(-.91) scale(.05 -.05)" gradientUnits="userSpaceOnUse">
      <stop offset="0" stop-color="#483c1d"/>
      <stop offset="1" stop-color="#695322"/>
    </linearGradient>
    <linearGradient id="linear-gradient2" x1="18086.15" y1="-10317.67" x2="18076.34" y2="-10459.68" gradientTransform="translate(-897.32 -497.76) rotate(-.91) scale(.05 -.05)" gradientUnits="userSpaceOnUse">
      <stop offset="0" stop-color="#f27c21"/>
      <stop offset="1" stop-color="#ca8e2b"/>
    </linearGradient>
    <linearGradient id="linear-gradient3" x1="17997.36" y1="-10384.83" x2="18002.08" y2="-10412.9" gradientTransform="translate(-897.32 -497.76) rotate(-.91) scale(.05 -.05)" gradientUnits="userSpaceOnUse">
      <stop offset="0" stop-color="#e27926"/>
      <stop offset="1" stop-color="#d39229"/>
    </linearGradient>
    <linearGradient id="linear-gradient4" x1="14.73" y1="22.33" x2="14.35" y2="15.2" gradientTransform="translate(0 26) scale(1 -1)" gradientUnits="userSpaceOnUse">
      <stop offset="0" stop-color="#ef7f22"/>
      <stop offset="0" stop-color="#f27c21"/>
      <stop offset="1" stop-color="#ca8e2b"/>
    </linearGradient>
  </defs>
  <g id="Generative_Object">
    <g id="Original_Art">
      <path class="st14" d="M16.77,8.58c.56-.04,1.07.04,1.52.41.35.29.58.81.63,1.26.05.48-.09.93-.4,1.3-.33.39-.76.6-1.26.63-.53.04-.91-.07-1.31-.42-.02.21-.08.42-.14.63-.06.23-.11.48-.16.71-.04.16-.27,1.24-.34,1.3-.18.07-.69.04-.88.02,0-.3.11-.57.18-.86.18-.81.37-1.6.55-2.41.04-.18.08-.35.11-.53.04-.21.05-.43.09-.64.04-.15.09-.29.16-.44.27-.51.7-.77,1.24-.95h.01ZM17.18,11.45c.58-.04,1.04-.54,1-1.13-.04-.58-.53-1.04-1.12-1.02-.39.01-.74.23-.91.58-.18.34-.15.76.06,1.07.21.33.58.51.97.49Z"/>
      <path class="st7" d="M16.79,9.78s.07.04.11.05c-.02.02-.04.04-.04.07.16-.04.34-.06.51-.04l.04-.02s.04.05.04.09l-.02.06s.12.07.18.11c-.04.02-.04.04-.05.07h.05s.06.04.08.08c.05.12.04.71,0,.84l-.04.04c-.25.06-.5.07-.75.06-.07,0-.14-.01-.21-.01l-.05-.04c-.07-.13-.06-.82-.04-.99.02-.19.07-.25.22-.36,0,0-.04,0-.04,0Z"/>
      <path class="st1" d="M17.4,9.84s.04.05.04.09l-.02.06h-.02v.05s-.01.08-.01.13v.21c-.18.01-.37,0-.55,0v-.43s.02-.02.04-.05h0c.16-.04.34-.06.51-.04l.04-.02h-.01Z"/>
      <path class="st12" d="M17.4,9.84s.04.05.04.09l-.02.06h-.02v.05s-.01-.13-.01-.18l.04-.02h-.01Z"/>
      <path class="st5" d="M16.79,9.78s.07.04.11.05c-.02.02-.04.04-.04.07h0s-.02.02-.04.05v.12s-.06,0-.07.01c-.08.13-.01.56-.04.74,0,.07-.07.15-.08.23.01.05.02.07.01.12l-.05-.04c-.07-.13-.06-.82-.04-.99.02-.19.07-.25.22-.36h0Z"/>
      <path class="st11" d="M16.64,11.05c-.04-.13-.04-.44-.04-.58,0-.11,0-.32.09-.4.04-.04.08-.04.13-.02v.02s-.06,0-.07.01c-.08.13-.01.56-.04.74,0,.07-.07.15-.08.23Z"/>
      <path class="st11" d="M17.36,10.04v-.04h.04c.06.04.12.07.18.11-.04.02-.04.04-.05.07h.05c0,.12.01.2.02.3,0-.01-.02-.04-.04-.05-.05-.05-.14-.05-.21-.05.01-.07,0-.14,0-.21v-.13h.01Z"/>
      <path class="st10" d="M17.54,10.16h.05c0,.12.01.2.02.3,0-.01-.02-.04-.04-.05-.05-.05-.14-.05-.21-.05.01-.07,0-.14,0-.21,0,.06.01.11.02.16.05-.05.11-.09.13-.16,0,0,.02,0,.02,0Z"/>
      <path class="st12" d="M17.58,10.18s.06.02.08.07c.05.12.04.71,0,.84l-.04.04c.02-.22,0-.44,0-.65,0-.09-.02-.19-.02-.29,0,0-.02,0-.02,0Z"/>
      <path class="st10" d="M16.85,10.48c.18.06.32.09.5.07.02.07.05.14.02.21h-.02c-.14.05-.29.07-.44.09-.04-.13-.05-.25-.05-.37,0,0-.01,0-.01,0Z"/>
      <path class="st5" d="M17.08,9.62c.13-.04.25-.02.35.05.08.05.18.13.2.22.01.05,0,.13-.02.18,0,.01-.02.02-.04.04-.06-.04-.12-.07-.18-.11l.02-.06s-.01-.06-.04-.09c-.09-.08-.15-.11-.27-.12-.08.04-.15.04-.22.09h-.01s-.07-.02-.11-.05c.09-.07.19-.13.3-.16h0Z"/>
      <path class="st8" d="M16.79,9.78c.09-.07.19-.13.3-.16.05,0,.11,0,.15.02,0,.02,0,.04-.04.05-.02.01-.04.01-.06.02h-.01c-.08.04-.15.04-.22.09h-.01s-.07-.02-.11-.05v.02h-.01Z"/>
      <path class="st14" d="M20.13,9.91c-.13,0-.64.05-.74,0,0-.01-.01-.04-.01-.05-.02-.13.04-.48.13-.58.04-.04.11-.06.15-.07.2-.06.41-.08.62-.14.25-.06.49-.15.75-.2.11-.02.21-.04.33-.04.01.35-.13.89-.21,1.25-.09.41-.18.82-.25,1.24-.02.13-.08.41,0,.51.02.02.05.04.08.04.08,0,.19-.04.26-.07.13-.06.25-.16.34-.28.29-.39.49-1.22.58-1.69.04-.15.11-.78.2-.86.18-.07.84-.06,1.06-.04l-.63,3.19c-.13.64-.33,1.25-.84,1.69-.11.09-.23.16-.35.25-.05,0-.13.04-.16.07h0c-.08.05-.21.06-.3.08-.41.08-1.05.19-1.45.08-.01,0-.04,0-.05-.01-.05,0-.08-.04-.13-.06-.04-.01-.06-.04-.09-.02-.05-.08-.19-.15-.26-.21-.13-.11-.18-.23-.2-.39-.02-.16,0-.34.11-.47.08-.09.2-.15.33-.16.33-.02.5.23.72.42.26,0,.79.05,1.03-.05.21-.08.41-.6.5-.79.04-.07.11-.23.08-.32-.15.02-.33.26-.48.33-.32.14-.7.19-1.04.06-.15-.06-.3-.15-.36-.32-.09-.22-.09-.49-.07-.72.02-.41.21-1.32.36-1.68h-.01Z"/>
      <path class="st14" d="M12.17,8.63c.47-.05.81.11,1.19.35.34.21.62.63.71,1.02.11.44.02,1.03-.22,1.41s-.69.71-1.13.81c-.61.13-1.04-.02-1.54-.35-.05.16-.07.34-.11.5l-.16.84c-.05.39-.15.82-.22,1.2-.27.05-.57.02-.85.01-.01-.29.13-.82.19-1.12l.32-1.72c.06-.34.11-.69.16-1.03.04-.25.07-.5.13-.74.06-.2.14-.35.27-.51.3-.37.81-.63,1.29-.68h-.01ZM12.51,11.52c.58-.09.98-.64.89-1.23s-.64-.98-1.23-.89-.99.64-.9,1.23.64.98,1.24.89Z"/>
      <path class="st12" d="M11.98,10.05c.19-.07.36-.07.56-.07.06,0,.12,0,.18.02.04.04.09.07.12.11.07.02.13.02.2.02.02,0,.06,0,.08.02.05.02.06.08.07.13.04.21-.04.6-.15.77-.42.06-.93.13-1.34,0-.05-.05-.09-.09-.12-.16-.09-.18-.11-.46-.05-.63.02-.08.05-.09.13-.13.12,0,.21-.06.33-.08Z"/>
      <path class="st16" d="M11.98,10.05c.19-.07.36-.07.56-.07.06,0,.12,0,.18.02.04.04.09.07.12.11.07.02.13.02.2.02.07.11.07.18.04.3-.09.08-.18.15-.3.19-.2.06-.48.13-.69.07-.12-.04-.4-.18-.46-.28-.05-.08,0-.21.02-.29.12,0,.21-.06.33-.08h.01Z"/>
      <path class="st9" d="M12.84,10.09c.07.02.13.02.2.02.07.11.07.18.04.3-.09.08-.18.15-.3.19h-.06s-.08,0-.12-.05c-.02-.07-.01-.12-.01-.19.05-.05.09-.08.14-.12.08-.05.09-.07.12-.16Z"/>
      <path class="st6" d="M12.54,9.98c.06,0,.12,0,.18.02.04.04.09.07.12.11-.02.09-.05.12-.12.16-.05.04-.09.08-.14.12-.09.05-.2.13-.3.13-.04,0-.06,0-.08-.04v-.04c.05-.12.19-.19.29-.26l.05-.08s0-.08.01-.13Z"/>
      <path class="st15" d="M12.54,9.98c.06,0,.12,0,.18.02.04.04.09.07.12.11-.02.09-.05.12-.12.16,0,0-.01-.02-.02-.04-.04-.04-.06-.04-.09-.04h-.11l.05-.08s0-.08.01-.13h-.01Z"/>
      <path class="st13" d="M11.98,10.05c.19-.07.36-.07.56-.07,0,.04-.01.08-.01.13-.07-.04-.46-.06-.55-.05h0Z"/>
      <path class="st14" d="M4.76,9.34c.36-.02.72-.01,1.09-.02.3,0,.62-.02.92,0,.05,0,.08,0,.12.04.05.11-.05.56-.07.69-.14.01-.29,0-.43.01-.04,0-.09.01-.12.05-.12.11-.49,2.27-.55,2.57-.04.16-.08.33-.13.49-.08.23-.19.46-.33.65-.35.44-.86.7-1.43.77-.64.08-1.24.04-1.76-.39-.29-.27-.46-.54-.49-.95-.02-.29.05-.6.23-.82.11-.12.25-.2.4-.2s.28.07.39.18c.26.23.13.72.14,1.04,0,.01.02.04.04.05.11.16.29.26.48.29.26.05.57,0,.78-.15.09-.07.18-.15.23-.25.41-.71.58-2.47.76-3.33h-.43s-.06,0-.08-.02c-.02-.15.04-.53.11-.67.05-.04.08-.04.14-.04Z"/>
      <path class="st0" d="M14.25,8.97c-.36-.02-.79-.09-1.14-.21-.23-.08-.5-.22-.61-.47-.06-.14-.04-.33,0-.48.09-.42.32-.84.48-1.25.11-.25.19-.5.32-.72.09-.18.33-.35.37-.54.04-.11,0-.23,0-.35-.02-.22-.04-.48.05-.69.09-.26.35-.44.6-.55.26-.11.55-.08.81.02.28.12.47.32.58.58.08.25.13.41.13.67.02.23.05.53-.12.72-.07.08-.15.13-.25.16.05.22.05.56.12.76.02.06.06.11.11.14.09.06.21.07.3.08l.44.07c.29.05.7.11.78.46.04.13.01.27-.05.37-.06.09-.16.18-.27.2-.23.06-1.4-.23-1.72-.29-.2-.04-.41-.06-.62-.11-.11-.02-.22-.06-.32-.12-.25-.16-.44-.6-.5-.89,0-.06-.02-.12.01-.18.01-.02.04-.04.07-.05.05,0,.11.01.15.04.08.12.15.27.22.4.06.13.11.29.2.41.05.05.11.09.18.11.26.06.53.07.78.13.32.06,1.27.35,1.53.25.02-.04.02-.06.02-.09,0-.06-.05-.12-.09-.15-.14-.11-1.16-.35-1.39-.41-.2-.05-.47-.05-.63-.18-.08-.06-.15-.21-.18-.32,0-.06,0-.13.04-.18s.08-.07.14-.07h.06c.11.09.06.4.34.37h.02c.05-.08-.02-.58-.05-.69-.02-.08-.09-.12-.16-.15-.27-.14-.77-.37-1.07-.27-.32.12-.56.84-.69,1.14-.13.3-.41.98-.47,1.29-.01.08-.02.18,0,.26.06.13.28.22.4.27.28.09.58.18.88.23.12.02.23.01.34.05.02,0,.07.02.08.05.14.29-.12,1.67.15,1.75.05.01.11,0,.14-.02.05-.02.06-.07.07-.12.09-.48.14-.97.21-1.45.04-.21.11-.44.09-.65-.16-.07-.33-.11-.49-.13-.11-.02-.23-.02-.33-.07-.04-.01-.06-.04-.07-.08,0-.04-.02-.09,0-.13,0-.01.01-.02.02-.04.11-.02.23.04.34.05l.16.02h.02c.22.02.53.09.67.28.05.06.06.09.06.16,0,.19-.06.36-.08.55-.05.33-.09.67-.14,1-.04.27-.07.64-.32.82-.13.09-.29.11-.46.08-.02-.01-.05-.04-.07-.06-.07-.07-.14-.15-.16-.25-.06-.21-.01-1.26-.01-1.57,0,0-.04,0-.04,0ZM15.62,4.35c-.13-.05-.43-.04-.55.04-.04.02-.06.04-.07.08,0,.06.01.09.06.13.06.06.49.3.57.35v-.02c.05-.08,0-.48-.02-.57,0,0,.01,0,.01,0Z"/>
      <path class="st15" d="M15.62,4.35h.06c.08.22.13.4.13.65-.06-.04-.12-.02-.18-.06v-.02c.05-.08,0-.48-.02-.57,0,0,.01,0,.01,0Z"/>
      <path class="st15" d="M21.56,15.34c.13,0,.32,0,.41-.09.07-.14-.14-.3.09-.37.14-.04.32-.02.46-.02.05.16.06.34.08.5.06.5.14,1.19.12,1.71-.22.01-.44,0-.67.02-.21.01-.42.05-.63.07l-1.59.16c-.41.04-.83.06-1.24.09-.02-.35-.26-2.02-.18-2.21.16-.06.63-.04.81,0,.05.09-.06.22.01.33h.11s0-.04.01-.05c.01-.02.05-.04.08-.04.05,0,.09,0,.12.04l.06.02s.01,0,.02-.01c.04-.02.05-.07.06-.11,0-.09-.04-.2.04-.27.2-.05,1.67-.14,1.75-.09.01,0,.05.29.07.34v-.02h.01ZM19.16,16.11c-.08-.02-.19-.07-.28-.05-.04.07-.06.55-.04.62.04.02.08.01.13,0,.13-.02.13-.09.21-.16h.02s.01.07.04.11c.05.02.11.02.16.02.08-.09.11-.21.16-.33,0,.09-.02.23.05.3h.08s.06-.02.08-.05c.06-.07.01-.22,0-.3v-.25c-.12-.02-.21-.06-.3,0-.12.08-.18.3-.27.42-.02-.12-.04-.23-.06-.35h.01ZM19.99,16.4s-.08.12-.07.18v.05c.15,0,.26-.07.37-.13-.01-.04-.02-.08-.04-.12-.01-.06,0-.08.02-.14.04.01.04.22.08.28.08.05.23.02.33.04h.02s.02-.06.02-.08v-.12s-.07-.01-.11-.02h-.06c-.09-.13-.07-.32-.27-.34-.07,0-.15,0-.22.02-.02.13-.04.28-.11.39h.01ZM21.25,15.9v.08c.02.14,0,.28.05.41.02.05.04.07.08.09.06.02.13.04.19,0,.02,0,.05-.04.05-.06s-.02-.07-.04-.09c-.06-.15-.08-.28-.05-.43v-.02c-.09,0-.19,0-.28.01h0ZM22.08,16.49s.07-.06.08-.12c.02-.12-.02-.29.05-.39.07-.05.25-.05.29-.11-.07-.06-.26-.04-.35-.02-.13,0-.33,0-.44.05v.02c.04.07.11.09.18.14v.02c.04.09,0,.35.09.39.04.01.07.01.11.01ZM21.15,15.91c-.11,0-.2.01-.3.02v.08c0,.07.02.13.04.2,0,.09-.02.21,0,.3l.02.02h.01c.12-.02.14-.06.21-.14.02-.02.05-.06.06-.09,0-.08.01-.33-.04-.39h0Z"/>
      <path class="st13" d="M19.35,15.52s0-.04.01-.05c.01-.02.05-.04.08-.04.05,0,.09,0,.12.04l.06.02c-.11.07-.2.06-.32.06l.05-.02h0Z"/>
      <path class="st13" d="M20.66,16.33c.01-.09.06-.27.11-.35.02-.04.05-.04.08-.04v.08c0,.07.02.13.04.2,0,.09-.02.21,0,.3l.02.02s-.12.04-.16.02h-.04.02s.02-.06.02-.08v-.12s-.07-.01-.11-.02v-.02h.01Z"/>
      <path class="st16" d="M20.66,16.33c.01-.09.06-.27.11-.35.02-.04.05-.04.08-.04v.08c-.05.08-.05.16-.05.26,0,.02-.01.06-.02.08-.04-.01-.07-.01-.11-.02h-.01Z"/>
      <path class="st13" d="M19.57,16.33c0,.09-.02.23.05.3h.08c-.09.02-.2.05-.29.04-.15.01-.29.02-.43.02.13-.02.13-.09.21-.16h.02s.01.07.04.11c.05.02.11.02.16.02.08-.09.11-.21.16-.33Z"/>
      <path class="st13" d="M21.15,15.91h.11v.08c.02.14,0,.28.05.41h-.18s.05-.06.06-.09c0-.08.01-.33-.04-.39h0Z"/>
      <path class="st13" d="M19.79,16.29s.04.07.08.09c.04.01.08.02.12.02-.04.05-.08.12-.07.18v.05c-.07.02-.14.02-.21.01.04-.01.06-.02.08-.05.06-.07.01-.22,0-.3Z"/>
      <path class="st14" d="M8.38,9.28c.22-.01,1.47-.06,1.59.02.04.15-.09.53-.13.69-.18.05-.39.04-.57.04-.04.41-.13.82-.21,1.22-.16.83-.35,1.66-.46,2.49h.51c0,.22-.04.49-.15.68-.21.04-.43.04-.64.04s-1.5.05-1.59.02h0c-.02-.07.01-.19.02-.27.01-.07.06-.39.11-.43.01-.01.07-.04.09-.04.12-.01.27.05.36-.02.05-.04.07-.08.09-.14.18-.48.26-1.16.35-1.67.12-.62.25-1.23.35-1.85-.16-.01-.34-.01-.5-.02v-.08c0-.13-.01-.5.08-.6.08-.08.56-.06.71-.07h-.02Z"/>
      <path class="st2" d="M10.01,7.29c.15,0,.33-.02.48-.04.36-.02.72-.05,1.09-.04.21.05.4.14.51.33.06.09.07.23.05.34,0,.05-.04.09-.07.12-.04.01-.07.02-.11,0-.05-.02-.06-.07-.08-.12-.04-.09-.05-.25-.14-.29-.21-.11-1.59.02-1.95.01.19.29.51.56.85.64.13.04.57-.01.63.11.02.04.02.09.02.13-.02.04-.04.06-.08.07-.08.02-.19.01-.27.01-.35,0-.61-.06-.91-.26-.21-.14-.56-.36-.61-.63-.01-.07,0-.22.05-.28s.16-.06.22-.06c.11,0,.22-.01.33-.02v-.02h-.01Z"/>
      <path class="st15" d="M16.59,5.84c.26,0,.47.13.68.28.13.09.25.22.37.33.21.2.61.51.63.81.02.27-.21.53-.27.78-.02.11,0,.23-.06.32-.04,0-.05.01-.07,0-.07-.01-.14-.09-.18-.15-.07-.13,0-.29.06-.42.06-.16.16-.3.21-.47.01-.05.02-.09,0-.14-.12-.22-.47-.44-.65-.61-.15-.13-.37-.39-.56-.43-.39-.08-.35.34-.53.42-.04.01-.07,0-.11,0-.04-.01-.06-.05-.07-.08-.02-.09,0-.2.05-.28.11-.18.33-.32.53-.37,0,0-.04.02-.04.02Z"/>
      <path class="st15" d="M19.43,14.22s.06,0,.09.02.08.05.13.06c0,.22-.05.44-.06.67,0,.16.01.35-.01.5-.02-.02-.08-.04-.12-.04-.02,0-.07.01-.08.04,0,.01,0,.04-.01.05,0-.15-.05-.32-.05-.47,0-.28.08-.56.12-.84h-.01Z"/>
      <path class="st15" d="M21.45,14.14h0s.12-.06.16-.07c.16.2.3.69.28.96,0,.05-.01.11-.06.14-.04.04-.09.06-.13.08-.07-.27-.13-.54-.19-.81-.02-.08-.04-.21-.06-.29h-.01Z"/>
      <path class="st13" d="M16.58,6.45s.11.04.15.07c.04.02.06.07.05.12,0,.04-.04.06-.07.08-.06,0-.13-.02-.16-.06-.04-.02-.04-.05-.04-.09.01-.05.04-.07.08-.11h-.01Z"/>
    </g>
    <g id="Expanded_Art">
      <path class="st3" d="M15.63,4.21h-1.87c.3-.62,1.39-.68,1.82-.14.02.04.04.13.05.14Z"/>
      <path class="st14" d="M2.14,12.24v1.99c-.41-.3-.62-.78-.55-1.31.04-.29.26-.63.55-.69h0Z"/>
      <path class="st14" d="M22.82,12.01v-3.1l.6.05c.11.14-.5,2.38-.49,2.72l-.11.33Z"/>
      <path class="st15" d="M18.53,16.87h4.18v.2l-4.08.33s-.09-.44-.11-.53Z"/>
      <path class="st4" d="M6.74,20.35"/>
    </g>
  </g>
</svg>